{"title":"Indian Summers S02E03 x264 RB58.mp4","uid":14382103,"size":526850104,"categoryP":"video","categoryS":"tv_shows","magnet":"?xt=urn:btih:21988bce34dbefd0ad980bcd02201ccb38661a0b&amp;dn=Indian+Summers+S02E03+x264+RB58.mp4&amp;tr=udp%3A%2F%2Ftracker.leechers-paradise.org%3A6969&amp;tr=udp%3A%2F%2Fzer0day.ch%3A1337&amp;tr=udp%3A%2F%2Fopen.demonii.com%3A1337&amp;tr=udp%3A%2F%2Ftracker.coppersurfer.tk%3A6969&amp;tr=udp%3A%2F%2Fexodus.desync.com%3A6969","seeders":1,"leechers":0,"uploader":"RedBaron58","files":1,"time":1461241288,"description":"Indian Summers S02E03 x264 mp4\r\n \nhttp://www.imdb.com/title/tt3706628/\r\n\r\nTrailer:\r\n\r\n\r\nPlease be patient My intial upload speed is limited.\r\nThank you for your kind comments and feedback on my other torrents, your feedback is welcome.\r\n\r\n\r\nAbout the Episode:\r\nRalph tries to gain the favour of the Maharjah of Patiala (Art Malik) to advance his standing, \r\nbut Cynthia is thrown by an encounter with the ruler's troublesome mistress. \r\nAs Aafrin deals with the consequences of a recent tragedy, he is given the delicate task \r\nof umpiring a cricket match between British and Indian politicians. \r\nHis personal and political worlds collide as the Dalal family are drawn into his secrets.\r\n\r\n\r\nI hope you enjoy.\r\n\r\n\r\nTechnical:\r\n\r\nGeneral\r\nComplete name                            : G:Indian Summers S02E03 x264 RB58.mp4\r\nFormat                                   : MPEG-4\r\nFormat profile                           : Base Media\r\nCodec ID                                 : isom\r\nFile size                                : 502 MiB\r\nDuration                                 : 45mn 57s\r\nOverall bit rate                         : 1 529 Kbps\r\nWriting application                      : Lavf54.63.104\r\n\r\nVideo\r\nID                                       : 1\r\nFormat                                   : AVC\r\nFormat/Info                              : Advanced Video Codec\r\nFormat profile                           :   \r\nFormat settings, CABAC                   : Yes\r\nFormat settings, ReFrames                : 4 frames\r\nCodec ID                                 : avc1\r\nCodec ID/Info                            : Advanced Video Coding\r\nDuration                                 : 45mn 57s\r\nBit rate                                 : 1 400 Kbps\r\nWidth                                    : 832 pixels\r\nHeight                                   : 468 pixels\r\nDisplay aspect ratio                     : 16:9\r\nFrame rate mode                          : Constant\r\nFrame rate                               : 25.000 fps\r\nColor space                              : YUV\r\nChroma subsampling                       : 4:2:0\r\nBit depth                                : 8 bits\r\nScan type                                : Progressive\r\nBits/(Pixel*Frame)                       : 0.144\r\nStream size                              : 460 MiB (92%)\r\nWriting library                          : x264 core 123 r2189 35cf912\r\nEncoding settings                        : cabac=1 / ref=3 / deblock=1:0:0\r\n\r\nAudio\r\nID                                       : 2\r\nFormat                                   : AAC\r\nFormat/Info                              : Advanced Audio Codec\r\nFormat profile                           : LC\r\nCodec ID                                 : 40\r\nDuration                                 : 45mn 57s\r\nBit rate mode                            : Constant\r\nBit rate                                 : 120 Kbps\r\nChannel(s)                               : 2 channels\r\nChannel positions                        : Front: L R\r\nSampling rate                            : 48.0 KHz\r\nCompression mode                         : Lossy\r\nStream size                              : 39.5 MiB (8%)","torrent":{"xt":"urn:btih:21988bce34dbefd0ad980bcd02201ccb38661a0b","amp;dn":"Indian+Summers+S02E03+x264+RB58.mp4","amp;tr":["udp%3A%2F%2Ftracker.leechers-paradise.org%3A6969","udp%3A%2F%2Fzer0day.ch%3A1337","udp%3A%2F%2Fopen.demonii.com%3A1337","udp%3A%2F%2Ftracker.coppersurfer.tk%3A6969","udp%3A%2F%2Fexodus.desync.com%3A6969"],"infoHash":"21988bce34dbefd0ad980bcd02201ccb38661a0b","infoHashBuffer":{"type":"Buffer","data":[33,152,139,206,52,219,239,208,173,152,11,205,2,32,28,203,56,102,26,11]},"announce":[],"urlList":[]}}